<svg width="20" height="20" viewBox="0 0 20 20" fill="none" xmlns="http://www.w3.org/2000/svg">
<path d="M8.50369 2.60553C8.67794 2.30058 8.41994 1.93007 8.07345 1.98781L6.45393 2.25773C6.20639 2.29899 6.05122 2.54809 6.12333 2.78845L6.62777 4.46993C6.73299 4.82065 7.20696 4.87485 7.38864 4.55693L8.50369 2.60553Z" fill="#FFD166"/>
<path d="M4.6946 3.82622C4.6017 3.51656 4.20834 3.42744 3.99735 3.67239C3.34309 4.43199 2.72514 5.23005 2.08524 5.99794C2.04963 6.04068 2.01565 6.08431 1.98331 6.12878C1.80978 6.36734 2.00694 6.66662 2.30194 6.66662H4.9867C5.26582 6.66662 5.466 6.39756 5.3858 6.13022L4.6946 3.82622Z" fill="#FFD166"/>
<path d="M2.17987 8.33325C1.89959 8.33325 1.70059 8.60645 1.84093 8.84904C1.88597 8.92687 1.93556 9.00295 1.98972 9.07679L7.98408 17.2509C8.0843 17.3876 8.19494 17.5105 8.31393 17.6198C8.57279 17.8575 8.89721 17.5835 8.79371 17.2477L6.13724 8.6272C6.0834 8.45245 5.92191 8.33325 5.73906 8.33325H2.17987Z" fill="#FFD166"/>
<path d="M11.2063 17.2479C11.1028 17.5837 11.4271 17.8577 11.686 17.62C11.8051 17.5107 11.9159 17.3877 12.0162 17.2509L18.0105 9.07679C18.0647 9.00295 18.1143 8.92687 18.1593 8.84904C18.2996 8.60645 18.1006 8.33325 17.8204 8.33325H14.2611C14.0782 8.33325 13.9167 8.45245 13.8629 8.6272L11.2063 17.2479Z" fill="#FFD166"/>
<path d="M17.6984 6.66661C17.9934 6.66661 18.1906 6.36734 18.0171 6.12876C17.9846 6.08431 17.9507 6.04067 17.9151 5.99794C17.2751 5.23001 16.6572 4.43189 16.0029 3.67226C15.7919 3.42732 15.3986 3.51644 15.3056 3.82609L14.6144 6.13021C14.5342 6.39756 14.7344 6.66661 15.0136 6.66661H17.6984Z" fill="#FFD166"/>
<path d="M13.5462 2.25775C13.7937 2.29901 13.9489 2.54811 13.8768 2.78848L13.3723 4.47008C13.2672 4.8208 12.7932 4.875 12.6115 4.55707L11.4963 2.60554C11.3221 2.30058 11.5802 1.93007 11.9266 1.98781L13.5462 2.25775Z" fill="#FFD166"/>
<path d="M10 3.34631L11.5412 6.04329C11.7 6.32106 11.4994 6.66668 11.1795 6.66668H8.82071C8.5008 6.66668 8.30022 6.32106 8.45896 6.04329L10 3.34631Z" fill="#FFD166"/>
<path d="M10.3982 14.2053C10.2775 14.5975 9.72236 14.5975 9.6017 14.2053L7.96085 8.87245C7.87841 8.60454 8.07876 8.33325 8.35911 8.33325H11.6409C11.9212 8.33325 12.1215 8.60454 12.0391 8.87245L10.3982 14.2053Z" fill="#FFD166"/>
</svg>
