<svg width="24" height="25" viewBox="0 0 24 25" fill="none" xmlns="http://www.w3.org/2000/svg">
<path fill-rule="evenodd" clip-rule="evenodd" d="M14 6.27485L10 4.94152V18.7251L14 20.0585V6.27485ZM16 6.37745V20.3368L19.1414 19.8881C19.6341 19.8177 20 19.3958 20 18.8981V6.95903C20 6.35048 19.461 5.88302 18.8586 5.96908L16 6.37745ZM4.85858 5.11194L8 4.66316V18.6226L5.14142 19.0309C4.53899 19.117 4 18.6495 4 18.041V6.10189C4 5.60423 4.36593 5.18231 4.85858 5.11194ZM15 22.5L9 20.5L5.42426 21.0108C3.61696 21.269 2 19.8666 2 18.041V6.10189C2 4.60894 3.09779 3.34317 4.57573 3.13204L9 2.5L15 4.5L18.5757 3.98918C20.383 3.73099 22 5.13338 22 6.95903V18.8981C22 20.3911 20.9022 21.6568 19.4243 21.868L15 22.5Z" fill="#777E91"/>
</svg>
