<svg width="24" height="25" viewBox="0 0 24 25" fill="none" xmlns="http://www.w3.org/2000/svg">
<path fill-rule="evenodd" clip-rule="evenodd" d="M16 5.5H8C7.44772 5.5 7 5.94772 7 6.5V10.5C7 13.2614 9.23858 15.5 12 15.5C14.7614 15.5 17 13.2614 17 10.5V6.5C17 5.94772 16.5523 5.5 16 5.5ZM8 3.5C6.34315 3.5 5 4.84315 5 6.5V10.5C5 14.366 8.13401 17.5 12 17.5C15.866 17.5 19 14.366 19 10.5V6.5C19 4.84315 17.6569 3.5 16 3.5H8Z" fill="#777E91"/>
<path fill-rule="evenodd" clip-rule="evenodd" d="M1 8.5C1 6.84315 2.34315 5.5 4 5.5H7V13.5H5C2.79086 13.5 1 11.7091 1 9.5V8.5ZM4 7.5H5V11.5C3.89543 11.5 3 10.6046 3 9.5V8.5C3 7.94772 3.44772 7.5 4 7.5Z" fill="#777E91"/>
<path fill-rule="evenodd" clip-rule="evenodd" d="M23 8.5C23 6.84315 21.6569 5.5 20 5.5H17V13.5H19C21.2091 13.5 23 11.7091 23 9.5V8.5ZM20 7.5H19V11.5C20.1046 11.5 21 10.6046 21 9.5V8.5C21 7.94772 20.5523 7.5 20 7.5Z" fill="#777E91"/>
<path d="M12 15.5C11.4477 15.5 11 15.9477 11 16.5V19.5H9C8.44771 19.5 8 19.9477 8 20.5C8 21.0523 8.44771 21.5 9 21.5H15C15.5523 21.5 16 21.0523 16 20.5C16 19.9477 15.5523 19.5 15 19.5H13V16.5C13 15.9477 12.5523 15.5 12 15.5Z" fill="#777E91"/>
</svg>
