<svg width="24" height="25" viewBox="0 0 24 25" fill="none" xmlns="http://www.w3.org/2000/svg">
<path d="M10 4.5C10 3.94772 10.4477 3.5 11 3.5C11.5523 3.5 12 3.94772 12 4.5V11.5H15V5.5C15 4.94772 15.4477 4.5 16 4.5C16.5523 4.5 17 4.94772 17 5.5V11.5H20C20.5523 11.5 21 11.9477 21 12.5C21 13.0523 20.5523 13.5 20 13.5H17V19.5C17 20.0523 16.5523 20.5 16 20.5C15.4477 20.5 15 20.0523 15 19.5V13.5L12 13.5V20.5C12 21.0523 11.5523 21.5 11 21.5C10.4477 21.5 10 21.0523 10 20.5V13.5H4C3.44772 13.5 3 13.0523 3 12.5C3 11.9477 3.44772 11.5 4 11.5H10V4.5Z" fill="#777E91"/>
<path fill-rule="evenodd" clip-rule="evenodd" d="M18.2169 6.93047L6.21693 4.2638C5.59242 4.12502 5 4.60024 5 5.23999V19.7603C5 20.4 5.59242 20.8753 6.21693 20.7365L18.2169 18.0698C18.6745 17.9681 19 17.5623 19 17.0936V7.90665C19 7.43796 18.6745 7.03214 18.2169 6.93047ZM6.65079 2.31143C4.77725 1.89508 3 3.32074 3 5.23999V19.7603C3 21.6795 4.77725 23.1052 6.65079 22.6889L18.6508 20.0222C20.0234 19.7172 21 18.4997 21 17.0936V7.90665C21 6.50056 20.0234 5.28312 18.6508 4.97809L6.65079 2.31143Z" fill="#777E91"/>
</svg>
