<svg width="16" height="17" viewBox="0 0 16 17" fill="none" xmlns="http://www.w3.org/2000/svg">
<path fill-rule="evenodd" clip-rule="evenodd" d="M2 3.83341C2 2.36066 3.19391 1.16675 4.66667 1.16675H10.2288C10.936 1.16675 11.6143 1.4477 12.1144 1.9478L13.219 3.05237C13.719 3.55246 14 4.23074 14 4.93798V13.1667C14 14.6395 12.8061 15.8334 11.3333 15.8334H4.66667C3.19391 15.8334 2 14.6395 2 13.1667V3.83341ZM12.6667 5.83341V13.1667C12.6667 13.9031 12.0697 14.5001 11.3333 14.5001H4.66667C3.93029 14.5001 3.33333 13.9031 3.33333 13.1667V3.83341C3.33333 3.09704 3.93029 2.50008 4.66667 2.50008H9.33333V3.83341C9.33333 4.93798 10.2288 5.83341 11.3333 5.83341H12.6667ZM12.5927 4.50008C12.5272 4.31181 12.4198 4.1388 12.2761 3.99518L11.1716 2.89061C11.028 2.74698 10.8549 2.63951 10.6667 2.57404V3.83341C10.6667 4.2016 10.9651 4.50008 11.3333 4.50008H12.5927Z" fill="#FCFCFD"/>
</svg>
