<svg width="17" height="16" viewBox="0 0 17 16" fill="none" xmlns="http://www.w3.org/2000/svg">
<g clip-path="url(#clip0_2101_21265)">
<path fill-rule="evenodd" clip-rule="evenodd" d="M10.8667 3.33333H5.53333C5.16514 3.33333 4.86666 3.63181 4.86666 4V6.66667C4.86666 8.50762 6.35904 10 8.19999 10C10.0409 10 11.5333 8.50762 11.5333 6.66667V4C11.5333 3.63181 11.2348 3.33333 10.8667 3.33333ZM5.53333 2C4.42876 2 3.53333 2.89543 3.53333 4V6.66667C3.53333 9.244 5.62266 11.3333 8.19999 11.3333C10.7773 11.3333 12.8667 9.244 12.8667 6.66667V4C12.8667 2.89543 11.9712 2 10.8667 2H5.53333Z" fill="#FCFCFD"/>
<path fill-rule="evenodd" clip-rule="evenodd" d="M0.866577 5.33325C0.866577 4.22868 1.76201 3.33325 2.86658 3.33325H4.86658V8.66659H3.53324C2.06048 8.66659 0.866577 7.47268 0.866577 5.99992V5.33325ZM2.86658 4.66659H3.53324V7.33325C2.79686 7.33325 2.19991 6.7363 2.19991 5.99992V5.33325C2.19991 4.96506 2.49839 4.66659 2.86658 4.66659Z" fill="#FCFCFD"/>
<path fill-rule="evenodd" clip-rule="evenodd" d="M15.5332 5.33325C15.5332 4.22868 14.6378 3.33325 13.5332 3.33325H11.5332V8.66659H12.8666C14.3393 8.66659 15.5332 7.47268 15.5332 5.99992V5.33325ZM13.5332 4.66659H12.8666V7.33325C13.603 7.33325 14.1999 6.7363 14.1999 5.99992V5.33325C14.1999 4.96506 13.9014 4.66659 13.5332 4.66659Z" fill="#FCFCFD"/>
<path d="M8.19999 10C7.8318 10 7.53333 10.2985 7.53333 10.6667V12.6667H6.19999C5.8318 12.6667 5.53333 12.9651 5.53333 13.3333C5.53333 13.7015 5.8318 14 6.19999 14H10.2C10.5682 14 10.8667 13.7015 10.8667 13.3333C10.8667 12.9651 10.5682 12.6667 10.2 12.6667H8.86666V10.6667C8.86666 10.2985 8.56818 10 8.19999 10Z" fill="#FCFCFD"/>
</g>
<defs>
<clipPath id="clip0_2101_21265">
<rect width="16" height="16" fill="white" transform="translate(0.199951)"/>
</clipPath>
</defs>
</svg>
