<svg width="16" height="17" viewBox="0 0 16 17" fill="none" xmlns="http://www.w3.org/2000/svg">
<path fill-rule="evenodd" clip-rule="evenodd" d="M8.00004 3.16659C6.69855 3.16659 5.49882 3.27392 4.53585 3.4011C3.66919 3.51556 3.01568 4.16907 2.90122 5.03572C2.77404 5.99869 2.66671 7.19843 2.66671 8.49992C2.66671 9.80141 2.77404 11.0011 2.90122 11.9641C3.01568 12.8308 3.66919 13.4843 4.53584 13.5987C5.49882 13.7259 6.69855 13.8333 8.00004 13.8333C9.30153 13.8333 10.5013 13.7259 11.4642 13.5987C12.3309 13.4843 12.9844 12.8308 13.0989 11.9641C13.226 11.0011 13.3334 9.80141 13.3334 8.49992C13.3334 7.19843 13.226 5.99869 13.0989 5.03572C12.9844 4.16907 12.3309 3.51556 11.4642 3.4011C10.5013 3.27392 9.30153 3.16659 8.00004 3.16659ZM4.36127 2.07925C2.89674 2.27267 1.77279 3.39661 1.57937 4.86114C1.4464 5.86797 1.33337 7.12743 1.33337 8.49992C1.33337 9.8724 1.4464 11.1319 1.57937 12.1387C1.77279 13.6032 2.89674 14.7272 4.36127 14.9206C5.3681 15.0536 6.62756 15.1666 8.00004 15.1666C9.37252 15.1666 10.632 15.0536 11.6388 14.9206C13.1033 14.7272 14.2273 13.6032 14.4207 12.1387C14.5537 11.1319 14.6667 9.8724 14.6667 8.49992C14.6667 7.12743 14.5537 5.86797 14.4207 4.86115C14.2273 3.39661 13.1033 2.27267 11.6388 2.07925C10.632 1.94627 9.37253 1.83325 8.00004 1.83325C6.62756 1.83325 5.3681 1.94627 4.36127 2.07925Z" fill="#FCFCFD"/>
<path d="M6.00016 7.83341C6.73654 7.83341 7.3335 7.23646 7.3335 6.50008C7.3335 5.7637 6.73654 5.16675 6.00016 5.16675C5.26378 5.16675 4.66683 5.7637 4.66683 6.50008C4.66683 7.23646 5.26378 7.83341 6.00016 7.83341Z" fill="#FCFCFD"/>
<path d="M12.081 8.97161L13.2773 10.1678C13.236 10.792 13.1757 11.3711 13.1093 11.8855L11.1382 9.91442C10.8779 9.65407 10.4558 9.65407 10.1954 9.91442L8.74771 11.3621C7.96666 12.1432 6.70033 12.1432 5.91928 11.3621L5.8049 11.2478C5.54455 10.9874 5.12244 10.9874 4.86209 11.2478L3.25605 12.8538C3.07 12.6015 2.94551 12.2988 2.90133 11.9643C2.87724 11.7819 2.85386 11.5909 2.83179 11.3924L3.91928 10.3049C4.70033 9.52389 5.96666 9.5239 6.74771 10.3049L6.86209 10.4193C7.12244 10.6797 7.54455 10.6797 7.8049 10.4193L9.25261 8.97161C10.0337 8.19056 11.3 8.19056 12.081 8.97161Z" fill="#FCFCFD"/>
</svg>
