<svg width="16" height="16" viewBox="0 0 16 16" fill="none" xmlns="http://www.w3.org/2000/svg">
<path fill-rule="evenodd" clip-rule="evenodd" d="M12 2.66683H4.00004C3.26366 2.66683 2.66671 3.26378 2.66671 4.00016V12.0002C2.66671 12.7366 3.26366 13.3335 4.00004 13.3335H12C12.7364 13.3335 13.3334 12.7366 13.3334 12.0002V4.00016C13.3334 3.26378 12.7364 2.66683 12 2.66683ZM4.00004 1.3335C2.52728 1.3335 1.33337 2.5274 1.33337 4.00016V12.0002C1.33337 13.4729 2.52728 14.6668 4.00004 14.6668H12C13.4728 14.6668 14.6667 13.4729 14.6667 12.0002V4.00016C14.6667 2.5274 13.4728 1.3335 12 1.3335H4.00004Z" fill="#E6E8EC"/>
<path d="M4.66667 5.33333C5.03485 5.33333 5.33333 5.03485 5.33333 4.66667C5.33333 4.29848 5.03485 4 4.66667 4C4.29848 4 4 4.29848 4 4.66667C4 5.03485 4.29848 5.33333 4.66667 5.33333Z" fill="#E6E8EC"/>
<path d="M4.66667 6.6665C4.29848 6.6665 4 6.96497 4 7.33317V11.3332C4 11.7014 4.29848 11.9998 4.66667 11.9998C5.03485 11.9998 5.33333 11.7014 5.33333 11.3332V7.33317C5.33333 6.96497 5.03485 6.6665 4.66667 6.6665Z" fill="#E6E8EC"/>
<path d="M9.33329 7.99984C8.59689 7.99984 7.99996 8.59677 7.99996 9.33317V11.3332C7.99996 11.7014 7.70149 11.9998 7.33329 11.9998C6.96509 11.9998 6.66663 11.7014 6.66663 11.3332V7.33317C6.66663 6.96497 6.96509 6.6665 7.33329 6.6665C7.60356 6.6665 7.83623 6.8273 7.94089 7.05844C8.34616 6.80984 8.82303 6.6665 9.33329 6.6665C10.806 6.6665 12 7.86044 12 9.33317V11.3332C12 11.7014 11.7015 11.9998 11.3333 11.9998C10.9651 11.9998 10.6666 11.7014 10.6666 11.3332V9.33317C10.6666 8.59677 10.0697 7.99984 9.33329 7.99984Z" fill="#E6E8EC"/>
</svg>
