<svg width="17" height="16" viewBox="0 0 17 16" fill="none" xmlns="http://www.w3.org/2000/svg">
<path fill-rule="evenodd" clip-rule="evenodd" d="M8.89994 14.6666C12.5818 14.6666 15.5666 11.6818 15.5666 7.99992C15.5666 4.31802 12.5818 1.33325 8.89994 1.33325C5.21804 1.33325 2.23328 4.31802 2.23328 7.99992C2.23328 11.6818 5.21804 14.6666 8.89994 14.6666ZM13.1131 11.2704C13.8152 10.3673 14.2333 9.23242 14.2333 7.99992C14.2333 5.28017 12.1975 3.03591 9.56661 2.70785V5.41726C10.7168 5.71329 11.5666 6.75736 11.5666 7.99992C11.5666 8.49448 11.432 8.9576 11.1974 9.35463L13.1131 11.2704ZM12.1703 12.2132L10.2545 10.2974C9.85753 10.532 9.39446 10.6666 8.89994 10.6666C8.40543 10.6666 7.94236 10.532 7.54536 10.2974L5.62957 12.2132C6.53268 12.9152 7.66749 13.3333 8.89994 13.3333C10.1324 13.3333 11.2672 12.9152 12.1703 12.2132ZM6.23328 7.99992C6.23328 8.49448 6.36791 8.9576 6.60253 9.35463L4.68675 11.2704C3.98468 10.3673 3.56661 9.23242 3.56661 7.99992C3.56661 5.28017 5.6024 3.03591 8.23328 2.70785V5.41726C7.08313 5.71329 6.23328 6.75736 6.23328 7.99992ZM8.89994 9.33325C9.63632 9.33325 10.2333 8.7363 10.2333 7.99992C10.2333 7.26354 9.63632 6.66659 8.89994 6.66659C8.16356 6.66659 7.56661 7.26354 7.56661 7.99992C7.56661 8.7363 8.16356 9.33325 8.89994 9.33325Z" fill="#141416"/>
</svg>
