<svg width="17" height="16" viewBox="0 0 17 16" fill="none" xmlns="http://www.w3.org/2000/svg">
<path fill-rule="evenodd" clip-rule="evenodd" d="M11.2667 7.99992C11.2667 9.47268 10.0728 10.6666 8.60002 10.6666C7.12726 10.6666 5.93335 9.47268 5.93335 7.99992C5.93335 6.52716 7.12726 5.33325 8.60002 5.33325C10.0728 5.33325 11.2667 6.52716 11.2667 7.99992ZM9.93335 7.99992C9.93335 8.7363 9.3364 9.33325 8.60002 9.33325C7.86364 9.33325 7.26668 8.7363 7.26668 7.99992C7.26668 7.26354 7.86364 6.66659 8.60002 6.66659C9.3364 6.66659 9.93335 7.26354 9.93335 7.99992Z" fill="#FCFCFD"/>
<path fill-rule="evenodd" clip-rule="evenodd" d="M15.2667 7.99992C15.2667 11.6818 12.2819 14.6666 8.60002 14.6666C4.91812 14.6666 1.93335 11.6818 1.93335 7.99992C1.93335 4.31802 4.91812 1.33325 8.60002 1.33325C12.2819 1.33325 15.2667 4.31802 15.2667 7.99992ZM13.9333 7.99992C13.9333 10.9454 11.5455 13.3333 8.60002 13.3333C5.6545 13.3333 3.26668 10.9454 3.26668 7.99992C3.26668 5.0544 5.6545 2.66659 8.60002 2.66659C11.5455 2.66659 13.9333 5.0544 13.9333 7.99992Z" fill="#FCFCFD"/>
<path d="M4.63416 3.12253C4.7506 2.77324 5.12814 2.58446 5.47744 2.7009L7.47744 3.36756C7.82673 3.48399 8.01551 3.86154 7.89908 4.21084C7.78264 4.56013 7.4051 4.74891 7.0558 4.63247L5.0558 3.96581C4.70651 3.84938 4.51773 3.47183 4.63416 3.12253Z" fill="#FCFCFD"/>
<path d="M4.6703 7.03517C4.83496 6.70585 5.23541 6.57237 5.56473 6.73703L6.89806 7.4037C7.22738 7.56836 7.36086 7.96881 7.1962 8.29813C7.03154 8.62744 6.63109 8.76093 6.30178 8.59627L4.96844 7.9296C4.63912 7.76494 4.50564 7.36449 4.6703 7.03517Z" fill="#FCFCFD"/>
<path d="M9.73801 13.1381C9.99836 12.8777 9.99836 12.4556 9.73801 12.1953C9.47766 11.9349 9.05555 11.9349 8.7952 12.1953L7.7952 13.1953C7.53485 13.4556 7.53485 13.8777 7.7952 14.1381C8.05555 14.3984 8.47766 14.3984 8.73801 14.1381L9.73801 13.1381Z" fill="#FCFCFD"/>
<path d="M9.7952 9.19526C10.0555 8.93491 10.4777 8.93491 10.738 9.19526L11.0713 9.52859C11.3317 9.78894 11.3317 10.2111 11.0713 10.4714C10.811 10.7318 10.3889 10.7318 10.1285 10.4714L9.7952 10.1381C9.53485 9.87772 9.53485 9.45561 9.7952 9.19526Z" fill="#FCFCFD"/>
<path d="M5.86287 10.9648C6.02753 10.6355 5.89405 10.235 5.56473 10.0704C5.23541 9.90571 4.83496 10.0392 4.6703 10.3685L4.00363 11.7018C3.83897 12.0312 3.97246 12.4316 4.30178 12.5963C4.63109 12.7609 5.03154 12.6274 5.1962 12.2981L5.86287 10.9648Z" fill="#FCFCFD"/>
<path d="M15.1962 7.70184C15.3609 8.03116 15.2274 8.43161 14.8981 8.59627L13.5647 9.26293C13.2354 9.42759 12.835 9.29411 12.6703 8.96479C12.5056 8.63547 12.6391 8.23502 12.9684 8.07036L14.3018 7.4037C14.6311 7.23904 15.0315 7.37252 15.1962 7.70184Z" fill="#FCFCFD"/>
<path d="M11.2324 5.54417C11.3488 5.19487 11.1601 4.81733 10.8108 4.7009C10.4615 4.58446 10.0839 4.77324 9.9675 5.12253L9.63416 6.12253C9.51773 6.47183 9.70651 6.84937 10.0558 6.96581C10.4051 7.08224 10.7826 6.89347 10.8991 6.54417L11.2324 5.54417Z" fill="#FCFCFD"/>
</svg>
