<svg width="16" height="17" viewBox="0 0 16 17" fill="none" xmlns="http://www.w3.org/2000/svg">
<path fill-rule="evenodd" clip-rule="evenodd" d="M8 9.16659C5.42267 9.16659 3.33333 11.2559 3.33333 13.8333V15.1666C3.33333 15.5348 3.03486 15.8333 2.66667 15.8333C2.29848 15.8333 2 15.5348 2 15.1666V13.8333C2 10.5195 4.68629 7.83325 8 7.83325C11.3137 7.83325 14 10.5195 14 13.8333V15.1666C14 15.5348 13.7015 15.8333 13.3333 15.8333C12.9651 15.8333 12.6667 15.5348 12.6667 15.1666V13.8333C12.6667 11.2559 10.5773 9.16659 8 9.16659Z" fill="#FCFCFD"/>
<path fill-rule="evenodd" clip-rule="evenodd" d="M8 7.83342C9.47276 7.83342 10.6667 6.63951 10.6667 5.16675C10.6667 3.69399 9.47276 2.50008 8 2.50008C6.52724 2.50008 5.33333 3.69399 5.33333 5.16675C5.33333 6.63951 6.52724 7.83342 8 7.83342ZM8 9.16675C10.2091 9.16675 12 7.37589 12 5.16675C12 2.95761 10.2091 1.16675 8 1.16675C5.79086 1.16675 4 2.95761 4 5.16675C4 7.37589 5.79086 9.16675 8 9.16675Z" fill="#FCFCFD"/>
</svg>
